<svg width="500" height="89" viewBox="0 0 500 89" fill="none" xmlns="http://www.w3.org/2000/svg">
<path d="M247.965 0.0107422L240.576 21.9051H238.132L231.719 3.23607L225.272 21.9051H222.861L215.473 0.0107422H217.85L224.173 18.8365L230.721 0.0107422H232.885L239.332 18.9261L245.745 0.0107422H247.965Z" fill="white"/>
<path d="M266.969 2.01583C268.55 3.34853 269.346 5.18519 269.346 7.51462C269.346 9.85524 268.55 11.6807 266.969 13.0022C265.388 14.3237 263.191 14.9845 260.399 14.9845H254.513V21.8943H252.192V0H260.399C263.191 0.0111991 265.388 0.671935 266.969 2.01583ZM265.31 11.5351C266.454 10.5832 267.037 9.25048 267.037 7.51462C267.037 5.74515 266.465 4.37887 265.31 3.43815C264.166 2.48622 262.507 2.01583 260.332 2.01583H254.513V12.9574H260.332C262.507 12.9574 264.166 12.487 265.31 11.5351Z" fill="white"/>
<path d="M0 49.7119H4.12603V88.6514H0V49.7119Z" fill="white"/>
<path d="M49.4113 49.7119V88.6514H46.0141L20.944 57.0474V88.6514H16.818V49.7119H20.2152L45.3302 81.3159V49.7119H49.4113Z" fill="white"/>
<path d="M69.6828 53.2733H55.9817V49.7119H87.5099V53.2733H73.8088V88.6625H69.6828V53.2733Z" fill="white"/>
<path d="M121.65 85.1027V88.664H94.0801V49.7246H120.821V53.2859H98.2061V67.1393H118.365V70.6446H98.2061V85.1139H121.65V85.1027Z" fill="white"/>
<path d="M157.966 88.664L149.053 76.1434C148.055 76.2554 147.012 76.3114 145.936 76.3114H135.464V88.664H131.338V49.7246H145.936C150.914 49.7246 154.816 50.9117 157.63 53.2859C160.455 55.6601 161.868 58.9191 161.868 63.074C161.868 66.1202 161.094 68.6848 159.558 70.779C158.011 72.8733 155.813 74.3851 152.954 75.3147L162.485 88.664H157.966ZM154.681 70.2414C156.722 68.5392 157.742 66.1426 157.742 63.0628C157.742 59.9158 156.722 57.4856 154.681 55.8057C152.64 54.1147 149.692 53.2748 145.824 53.2748H135.464V72.8061H145.824C149.68 72.8061 152.64 71.9549 154.681 70.2414Z" fill="white"/>
<path d="M171.611 49.7119H175.737V88.6514H171.611V49.7119Z" fill="white"/>
<path d="M194.977 86.4136C191.838 84.6889 189.393 82.3259 187.622 79.3245C185.862 76.3231 184.976 72.941 184.976 69.2005C184.976 65.46 185.862 62.0778 187.622 59.0765C189.382 56.0751 191.838 53.7121 194.977 51.9874C198.116 50.2627 201.614 49.4004 205.471 49.4004C209.328 49.4004 212.815 50.2515 215.91 51.9538C219.004 53.6561 221.449 56.0303 223.231 59.0429C225.014 62.0666 225.9 65.4488 225.9 69.2005C225.9 72.9522 225.014 76.3343 223.231 79.3581C221.449 82.3819 219.004 84.7449 215.91 86.4472C212.804 88.1494 209.328 89.0006 205.471 89.0006C201.614 89.0006 198.116 88.1382 194.977 86.4136ZM213.824 83.233C216.313 81.8443 218.264 79.9181 219.677 77.4431C221.09 74.9792 221.796 72.2242 221.796 69.1781C221.796 66.1319 221.09 63.3881 219.677 60.9131C218.264 58.4493 216.313 56.5231 213.824 55.1232C211.335 53.7345 208.555 53.0401 205.471 53.0401C202.388 53.0401 199.596 53.7345 197.085 55.1232C194.573 56.5119 192.611 58.4381 191.176 60.9131C189.741 63.3769 189.035 66.1319 189.035 69.1781C189.035 72.2242 189.752 74.968 191.176 77.4431C192.6 79.9069 194.573 81.8331 197.085 83.233C199.596 84.6217 202.388 85.3161 205.471 85.3161C208.555 85.3272 211.335 84.6329 213.824 83.233Z" fill="white"/>
<path d="M261.789 88.664L252.876 76.1434C251.878 76.2554 250.835 76.3114 249.759 76.3114H239.287V88.664H235.161V49.7246H249.759C254.737 49.7246 258.639 50.9117 261.453 53.2859C264.278 55.6601 265.691 58.9191 265.691 63.074C265.691 66.1202 264.918 68.6848 263.382 70.779C261.834 72.8733 259.637 74.3851 256.778 75.3147L266.308 88.664H261.789ZM258.493 70.2414C260.534 68.5392 261.554 66.1426 261.554 63.0628C261.554 59.9158 260.534 57.4856 258.493 55.8057C256.453 54.1147 253.504 53.2748 249.636 53.2748H239.276V72.8061H249.636C253.504 72.8061 256.453 71.9549 258.493 70.2414Z" fill="white"/>
<path d="M290.021 49.7119H305.898C310.024 49.7119 313.656 50.5407 316.818 52.1869C319.969 53.8332 322.424 56.1403 324.173 59.0856C325.922 62.031 326.797 65.4019 326.797 69.1872C326.797 72.9726 325.922 76.3323 324.173 79.2889C322.424 82.2342 319.98 84.5413 316.818 86.1875C313.656 87.8338 310.024 88.6625 305.898 88.6625H290.021V49.7119ZM305.673 85.1012C309.093 85.1012 312.075 84.4293 314.643 83.0742C317.199 81.7191 319.195 79.8488 320.608 77.4522C322.02 75.0556 322.727 72.3006 322.727 69.1872C322.727 66.0739 322.02 63.3189 320.608 60.9223C319.195 58.5257 317.211 56.6554 314.643 55.3003C312.075 53.9452 309.093 53.2733 305.673 53.2733H294.147V85.1012H305.673Z" fill="white"/>
<path d="M363.606 85.1027V88.664H336.035V49.7246H362.776V53.2859H340.161V67.1393H360.321V70.6446H340.161V85.1139H363.606V85.1027Z" fill="white"/>
<path d="M375.715 87.5992C373.057 86.6696 371.006 85.4489 369.559 83.9258L371.174 80.7565C372.587 82.1676 374.459 83.3099 376.802 84.1834C379.146 85.0569 381.556 85.4937 384.045 85.4937C387.532 85.4937 390.156 84.8554 391.894 83.5787C393.643 82.302 394.506 80.6445 394.506 78.595C394.506 77.0384 394.035 75.7953 393.082 74.8657C392.14 73.9362 390.974 73.2195 389.595 72.7267C388.216 72.2227 386.31 71.674 383.855 71.0804C380.917 70.3413 378.585 69.6245 376.836 68.9414C375.087 68.2582 373.596 67.2055 372.351 65.7944C371.107 64.3833 370.49 62.4795 370.49 60.0605C370.49 58.0894 371.006 56.3088 372.048 54.6961C373.091 53.0834 374.683 51.7955 376.836 50.8324C378.989 49.8692 381.657 49.3877 384.853 49.3877C387.084 49.3877 389.259 49.69 391.4 50.306C393.531 50.922 395.381 51.7619 396.939 52.837L395.549 56.1184C393.912 55.0432 392.174 54.2369 390.313 53.6994C388.452 53.1618 386.635 52.893 384.853 52.893C381.433 52.893 378.865 53.5538 377.139 54.8641C375.412 56.1856 374.549 57.8766 374.549 59.9597C374.549 61.5164 375.02 62.7706 375.973 63.7114C376.914 64.6521 378.103 65.3801 379.538 65.884C380.962 66.388 382.89 66.9367 385.301 67.5303C388.16 68.2358 390.47 68.9302 392.23 69.6133C393.99 70.2965 395.493 71.338 396.715 72.7267C397.937 74.1154 398.554 75.9969 398.554 78.3711C398.554 80.3421 398.027 82.1228 396.962 83.7355C395.908 85.3481 394.282 86.6249 392.084 87.5768C389.898 88.5287 387.196 88.9991 384.012 88.9991C381.141 88.9991 378.372 88.5287 375.715 87.5992Z" fill="white"/>
<path d="M407.546 49.7119H411.672V88.6514H407.546V49.7119Z" fill="white"/>
<path d="M451.822 69.1878H455.78V84.0378C453.963 85.6281 451.811 86.86 449.322 87.7112C446.833 88.5623 444.22 88.9879 441.473 88.9879C437.571 88.9879 434.062 88.1367 430.945 86.4344C427.828 84.7322 425.373 82.3692 423.59 79.3454C421.807 76.3216 420.91 72.9395 420.91 69.1878C420.91 65.4473 421.807 62.0539 423.59 59.0301C425.373 56.0064 427.828 53.6434 430.945 51.9411C434.062 50.2388 437.594 49.3877 441.529 49.3877C444.501 49.3877 447.225 49.858 449.714 50.81C452.203 51.7507 454.3 53.1506 456.004 55.0097L453.448 57.6302C450.364 54.5841 446.451 53.0722 441.697 53.0722C438.536 53.0722 435.688 53.7666 433.143 55.1552C430.598 56.5439 428.602 58.4702 427.156 60.9452C425.709 63.409 424.98 66.164 424.98 69.2102C424.98 72.2563 425.709 75.0001 427.156 77.4415C428.602 79.8941 430.586 81.8204 433.12 83.2315C435.643 84.6426 438.491 85.3481 441.641 85.3481C445.655 85.3481 449.053 84.3514 451.833 82.3468V69.1878H451.822Z" fill="white"/>
<path d="M500 49.7119V88.6514H496.603L471.533 57.0474V88.6514H467.407V49.7119H470.804L495.93 81.3159V49.7119H500Z" fill="white"/>
</svg>
