<svg width="240" height="42" viewBox="0 0 240 42" fill="none" xmlns="http://www.w3.org/2000/svg">
<path d="M119.023 0.00585938L115.477 10.3378H114.303L111.225 1.52789L108.13 10.3378H106.973L103.427 0.00585938H104.568L107.603 8.88976L110.746 0.00585938H111.785L114.879 8.93204L117.958 0.00585938H119.023Z" fill="#3E3E3E" fill-opacity="0.5"/>
<path d="M128.145 0.951274C128.904 1.58018 129.286 2.4469 129.286 3.54616C129.286 4.6507 128.904 5.51214 128.145 6.13575C127.386 6.75937 126.332 7.07119 124.991 7.07119H122.166V10.332H121.052V0H124.991C126.332 0.00528489 127.386 0.317087 128.145 0.951274ZM127.349 5.44343C127.898 4.99422 128.177 4.36532 128.177 3.54616C128.177 2.71115 127.903 2.0664 127.349 1.62247C126.8 1.17325 126.003 0.951274 124.959 0.951274H122.166V6.11462H124.959C126.003 6.11462 126.8 5.89265 127.349 5.44343Z" fill="#3E3E3E" fill-opacity="0.5"/>
<path d="M0 23.46H1.98049V41.8355H0V23.46Z" fill="#3E3E3E" fill-opacity="0.5"/>
<path d="M23.7176 23.46V41.8355H22.0869L10.0532 26.9216V41.8355H8.07275V23.46H9.70343L21.7586 38.3739V23.46H23.7176Z" fill="#3E3E3E" fill-opacity="0.5"/>
<path d="M33.4476 25.1406H26.8711V23.46H42.0046V25.1406H35.4281V41.8408H33.4476V25.1406Z" fill="#3E3E3E" fill-opacity="0.5"/>
<path d="M58.3922 40.1608V41.8414H45.1584V23.4658H57.994V25.1464H47.1389V31.6838H56.8154V33.338H47.1389V40.1661H58.3922V40.1608Z" fill="#3E3E3E" fill-opacity="0.5"/>
<path d="M75.8237 41.8414L71.5452 35.9329C71.0662 35.9857 70.5657 36.0122 70.049 36.0122H65.0225V41.8414H63.042V23.4658H70.049C72.4386 23.4658 74.3114 24.026 75.6622 25.1464C77.0184 26.2668 77.6965 27.8047 77.6965 29.7654C77.6965 31.2029 77.3252 32.4132 76.5879 33.4014C75.8452 34.3897 74.7904 35.1032 73.418 35.5418L77.9925 41.8414H75.8237ZM74.2468 33.1477C75.2263 32.3444 75.7161 31.2135 75.7161 29.7601C75.7161 28.2751 75.2263 27.1282 74.2468 26.3355C73.2673 25.5375 71.8519 25.1411 69.9952 25.1411H65.0225V34.358H69.9952C71.8466 34.358 73.2673 33.9563 74.2468 33.1477Z" fill="#3E3E3E" fill-opacity="0.5"/>
<path d="M82.3733 23.46H84.3538V41.8355H82.3733V23.46Z" fill="#3E3E3E" fill-opacity="0.5"/>
<path d="M93.5891 40.7791C92.0822 39.9652 90.909 38.8501 90.0587 37.4337C89.2137 36.0174 88.7886 34.4214 88.7886 32.6562C88.7886 30.891 89.2137 29.295 90.0587 27.8787C90.9036 26.4623 92.0822 25.3472 93.5891 24.5333C95.096 23.7194 96.7751 23.3125 98.6264 23.3125C100.478 23.3125 102.152 23.7142 103.637 24.5175C105.122 25.3208 106.295 26.4412 107.151 27.8628C108.007 29.2897 108.432 30.8858 108.432 32.6562C108.432 34.4266 108.007 36.0227 107.151 37.4496C106.295 38.8765 105.122 39.9916 103.637 40.7949C102.146 41.5982 100.478 41.9999 98.6264 41.9999C96.7751 41.9999 95.096 41.593 93.5891 40.7791ZM102.636 39.2782C103.831 38.6228 104.767 37.7138 105.445 36.5459C106.123 35.3832 106.462 34.0831 106.462 32.6456C106.462 31.2081 106.123 29.9133 105.445 28.7454C104.767 27.5827 103.831 26.6737 102.636 26.0131C101.441 25.3578 100.106 25.0301 98.6264 25.0301C97.1465 25.0301 95.8064 25.3578 94.6009 26.0131C93.3954 26.6684 92.4536 27.5774 91.7647 28.7454C91.0758 29.908 90.7368 31.2081 90.7368 32.6456C90.7368 34.0831 91.0812 35.3779 91.7647 36.5459C92.4482 37.7086 93.3954 38.6176 94.6009 39.2782C95.8064 39.9335 97.1465 40.2612 98.6264 40.2612C100.106 40.2664 101.441 39.9388 102.636 39.2782Z" fill="#3E3E3E" fill-opacity="0.5"/>
<path d="M125.659 41.8414L121.38 35.9329C120.901 35.9857 120.401 36.0122 119.884 36.0122H114.858V41.8414H112.877V23.4658H119.884C122.274 23.4658 124.147 24.026 125.497 25.1464C126.854 26.2668 127.532 27.8047 127.532 29.7654C127.532 31.2029 127.16 32.4132 126.423 33.4014C125.68 34.3897 124.626 35.1032 123.253 35.5418L127.828 41.8414H125.659ZM124.077 33.1477C125.056 32.3444 125.546 31.2135 125.546 29.7601C125.546 28.2751 125.056 27.1282 124.077 26.3355C123.097 25.5375 121.682 25.1411 119.825 25.1411H114.852V34.358H119.825C121.682 34.358 123.097 33.9563 124.077 33.1477Z" fill="#3E3E3E" fill-opacity="0.5"/>
<path d="M139.21 23.46H146.831C148.811 23.46 150.555 23.8511 152.073 24.6279C153.585 25.4048 154.764 26.4935 155.603 27.8834C156.443 29.2734 156.862 30.8641 156.862 32.6504C156.862 34.4367 156.443 36.0222 155.603 37.4174C154.764 38.8073 153.59 39.896 152.073 40.6729C150.555 41.4497 148.811 41.8408 146.831 41.8408H139.21V23.46ZM146.723 40.1602C148.365 40.1602 149.796 39.8431 151.029 39.2037C152.256 38.5642 153.214 37.6816 153.892 36.5506C154.57 35.4197 154.909 34.1196 154.909 32.6504C154.909 31.1812 154.57 29.8811 153.892 28.7501C153.214 27.6192 152.261 26.7366 151.029 26.0971C149.796 25.4577 148.365 25.1406 146.723 25.1406H141.191V40.1602H146.723Z" fill="#3E3E3E" fill-opacity="0.5"/>
<path d="M174.531 40.1608V41.8414H161.297V23.4658H174.132V25.1464H163.277V31.6838H172.954V33.338H163.277V40.1661H174.531V40.1608Z" fill="#3E3E3E" fill-opacity="0.5"/>
<path d="M180.343 41.3377C179.068 40.8991 178.083 40.323 177.388 39.6043L178.163 38.1086C178.842 38.7745 179.74 39.3136 180.865 39.7258C181.99 40.138 183.147 40.3442 184.342 40.3442C186.015 40.3442 187.275 40.0429 188.109 39.4404C188.948 38.838 189.363 38.0558 189.363 37.0887C189.363 36.3541 189.137 35.7674 188.679 35.3288C188.227 34.8902 187.668 34.5519 187.006 34.3194C186.344 34.0816 185.429 33.8226 184.25 33.5425C182.84 33.1937 181.721 32.8555 180.881 32.5331C180.042 32.2107 179.326 31.7139 178.728 31.048C178.131 30.3821 177.835 29.4837 177.835 28.3422C177.835 27.412 178.083 26.5717 178.583 25.8107C179.084 25.0497 179.848 24.4419 180.881 23.9874C181.914 23.5329 183.195 23.3057 184.729 23.3057C185.8 23.3057 186.844 23.4483 187.872 23.739C188.895 24.0297 189.783 24.4261 190.531 24.9334L189.863 26.4819C189.078 25.9745 188.243 25.594 187.35 25.3404C186.457 25.0867 185.585 24.9598 184.729 24.9598C183.088 24.9598 181.855 25.2716 181.027 25.89C180.198 26.5136 179.783 27.3116 179.783 28.2946C179.783 29.0292 180.009 29.6211 180.467 30.065C180.919 30.509 181.489 30.8525 182.178 31.0903C182.862 31.3281 183.787 31.5871 184.944 31.8672C186.317 32.2001 187.425 32.5278 188.27 32.8502C189.115 33.1726 189.836 33.6641 190.423 34.3194C191.01 34.9747 191.306 35.8626 191.306 36.983C191.306 37.9131 191.053 38.7534 190.541 39.5144C190.036 40.2754 189.255 40.8779 188.2 41.3272C187.151 41.7764 185.854 41.9983 184.326 41.9983C182.948 41.9983 181.618 41.7764 180.343 41.3377Z" fill="#3E3E3E" fill-opacity="0.5"/>
<path d="M195.622 23.46H197.603V41.8355H195.622V23.46Z" fill="#3E3E3E" fill-opacity="0.5"/>
<path d="M216.874 32.6494H218.774V39.6571C217.902 40.4076 216.869 40.9889 215.674 41.3906C214.48 41.7922 213.226 41.993 211.907 41.993C210.034 41.993 208.35 41.5914 206.854 40.7881C205.357 39.9848 204.179 38.8697 203.323 37.4428C202.467 36.0158 202.037 34.4198 202.037 32.6494C202.037 30.8842 202.467 29.2829 203.323 27.8559C204.179 26.429 205.357 25.3139 206.854 24.5106C208.35 23.7073 210.045 23.3057 211.934 23.3057C213.36 23.3057 214.668 23.5276 215.863 23.9768C217.057 24.4208 218.064 25.0814 218.882 25.9587L217.655 27.1953C216.175 25.7578 214.297 25.0444 212.015 25.0444C210.497 25.0444 209.13 25.3721 207.908 26.0274C206.687 26.6827 205.729 27.5917 205.035 28.7597C204.34 29.9223 203.99 31.2224 203.99 32.6599C203.99 34.0974 204.34 35.3922 205.035 36.5443C205.729 37.7017 206.681 38.6107 207.898 39.2766C209.109 39.9425 210.475 40.2754 211.988 40.2754C213.914 40.2754 215.545 39.8051 216.88 38.8591V32.6494H216.874Z" fill="#3E3E3E" fill-opacity="0.5"/>
<path d="M240 23.46V41.8355H238.369L226.336 26.9216V41.8355H224.355V23.46H225.986L238.046 38.3739V23.46H240Z" fill="#3E3E3E" fill-opacity="0.5"/>
</svg>
