<svg width="240" height="42" viewBox="0 0 240 42" fill="none" xmlns="http://www.w3.org/2000/svg">
<path d="M119.023 0.00390625L115.477 10.3359H114.303L111.225 1.52594L108.13 10.3359H106.973L103.427 0.00390625H104.568L107.603 8.88781L110.746 0.00390625H111.785L114.879 8.93008L117.958 0.00390625H119.023Z" fill="white" fill-opacity="0.5"/>
<path d="M128.145 0.951274C128.904 1.58018 129.286 2.4469 129.286 3.54616C129.286 4.6507 128.904 5.51214 128.145 6.13575C127.386 6.75937 126.332 7.07119 124.991 7.07119H122.166V10.332H121.052V0H124.991C126.332 0.00528489 127.386 0.317087 128.145 0.951274ZM127.349 5.44343C127.898 4.99422 128.177 4.36532 128.177 3.54616C128.177 2.71115 127.903 2.0664 127.349 1.62247C126.8 1.17325 126.003 0.951274 124.959 0.951274H122.166V6.11462H124.959C126.003 6.11462 126.8 5.89265 127.349 5.44343Z" fill="white" fill-opacity="0.5"/>
<path d="M0 23.4609H1.98049V41.8365H0V23.4609Z" fill="white" fill-opacity="0.5"/>
<path d="M23.7176 23.4609V41.8365H22.0869L10.0532 26.9226V41.8365H8.07275V23.4609H9.70343L21.7586 38.3749V23.4609H23.7176Z" fill="white" fill-opacity="0.5"/>
<path d="M33.4476 25.1415H26.8711V23.4609H42.0046V25.1415H35.4281V41.8418H33.4476V25.1415Z" fill="white" fill-opacity="0.5"/>
<path d="M58.3922 40.1598V41.8404H45.1584V23.4648H57.994V25.1454H47.1389V31.6829H56.8154V33.337H47.1389V40.1651H58.3922V40.1598Z" fill="white" fill-opacity="0.5"/>
<path d="M75.8237 41.8404L71.5452 35.9319C71.0662 35.9848 70.5657 36.0112 70.049 36.0112H65.0225V41.8404H63.042V23.4648H70.049C72.4386 23.4648 74.3114 24.025 75.6622 25.1454C77.0184 26.2658 77.6965 27.8037 77.6965 29.7644C77.6965 31.2019 77.3252 32.4122 76.5879 33.4005C75.8452 34.3887 74.7904 35.1022 73.418 35.5408L77.9925 41.8404H75.8237ZM74.2468 33.1468C75.2263 32.3435 75.7161 31.2125 75.7161 29.7592C75.7161 28.2741 75.2263 27.1273 74.2468 26.3345C73.2673 25.5365 71.8519 25.1402 69.9952 25.1402H65.0225V34.357H69.9952C71.8466 34.357 73.2673 33.9554 74.2468 33.1468Z" fill="white" fill-opacity="0.5"/>
<path d="M82.3733 23.4609H84.3538V41.8365H82.3733V23.4609Z" fill="white" fill-opacity="0.5"/>
<path d="M93.5891 40.7791C92.0822 39.9652 90.909 38.8501 90.0587 37.4337C89.2137 36.0174 88.7886 34.4214 88.7886 32.6562C88.7886 30.891 89.2137 29.295 90.0587 27.8787C90.9036 26.4623 92.0822 25.3472 93.5891 24.5333C95.096 23.7194 96.7751 23.3125 98.6264 23.3125C100.478 23.3125 102.152 23.7142 103.637 24.5175C105.122 25.3208 106.295 26.4412 107.151 27.8628C108.007 29.2897 108.432 30.8858 108.432 32.6562C108.432 34.4266 108.007 36.0227 107.151 37.4496C106.295 38.8765 105.122 39.9916 103.637 40.7949C102.146 41.5982 100.478 41.9999 98.6264 41.9999C96.7751 41.9999 95.096 41.593 93.5891 40.7791ZM102.636 39.2782C103.831 38.6228 104.767 37.7138 105.445 36.5459C106.123 35.3832 106.462 34.0831 106.462 32.6456C106.462 31.2081 106.123 29.9133 105.445 28.7454C104.767 27.5827 103.831 26.6737 102.636 26.0131C101.441 25.3578 100.106 25.0301 98.6264 25.0301C97.1465 25.0301 95.8064 25.3578 94.6009 26.0131C93.3954 26.6684 92.4536 27.5774 91.7647 28.7454C91.0758 29.908 90.7368 31.2081 90.7368 32.6456C90.7368 34.0831 91.0812 35.3779 91.7647 36.5459C92.4482 37.7086 93.3954 38.6176 94.6009 39.2782C95.8064 39.9335 97.1465 40.2612 98.6264 40.2612C100.106 40.2664 101.441 39.9388 102.636 39.2782Z" fill="white" fill-opacity="0.5"/>
<path d="M125.659 41.8404L121.38 35.9319C120.901 35.9848 120.401 36.0112 119.884 36.0112H114.858V41.8404H112.877V23.4648H119.884C122.274 23.4648 124.147 24.025 125.497 25.1454C126.854 26.2658 127.532 27.8037 127.532 29.7644C127.532 31.2019 127.16 32.4122 126.423 33.4005C125.68 34.3887 124.626 35.1022 123.253 35.5408L127.828 41.8404H125.659ZM124.077 33.1468C125.056 32.3435 125.546 31.2125 125.546 29.7592C125.546 28.2741 125.056 27.1273 124.077 26.3345C123.097 25.5365 121.682 25.1402 119.825 25.1402H114.852V34.357H119.825C121.682 34.357 123.097 33.9554 124.077 33.1468Z" fill="white" fill-opacity="0.5"/>
<path d="M139.21 23.4609H146.831C148.811 23.4609 150.555 23.852 152.073 24.6289C153.585 25.4058 154.764 26.4945 155.603 27.8844C156.443 29.2743 156.862 30.8651 156.862 32.6514C156.862 34.4377 156.443 36.0231 155.603 37.4183C154.764 38.8083 153.59 39.897 152.073 40.6738C150.555 41.4507 148.811 41.8418 146.831 41.8418H139.21V23.4609ZM146.723 40.1612C148.365 40.1612 149.796 39.8441 151.029 39.2046C152.256 38.5652 153.214 37.6826 153.892 36.5516C154.57 35.4207 154.909 34.1206 154.909 32.6514C154.909 31.1822 154.57 29.8821 153.892 28.7511C153.214 27.6202 152.261 26.7376 151.029 26.0981C149.796 25.4586 148.365 25.1415 146.723 25.1415H141.191V40.1612H146.723Z" fill="white" fill-opacity="0.5"/>
<path d="M174.531 40.1598V41.8404H161.297V23.4648H174.132V25.1454H163.277V31.6829H172.954V33.337H163.277V40.1651H174.531V40.1598Z" fill="white" fill-opacity="0.5"/>
<path d="M180.343 41.3367C179.068 40.8981 178.083 40.322 177.388 39.6033L178.163 38.1077C178.842 38.7736 179.74 39.3126 180.865 39.7248C181.99 40.1371 183.147 40.3432 184.342 40.3432C186.015 40.3432 187.275 40.0419 188.109 39.4395C188.948 38.837 189.363 38.0548 189.363 37.0877C189.363 36.3531 189.137 35.7665 188.679 35.3278C188.227 34.8892 187.668 34.5509 187.006 34.3184C186.344 34.0806 185.429 33.8216 184.25 33.5415C182.84 33.1927 181.721 32.8545 180.881 32.5321C180.042 32.2097 179.326 31.7129 178.728 31.0471C178.131 30.3812 177.835 29.4827 177.835 28.3412C177.835 27.411 178.083 26.5707 178.583 25.8097C179.084 25.0487 179.848 24.4409 180.881 23.9864C181.914 23.5319 183.195 23.3047 184.729 23.3047C185.8 23.3047 186.844 23.4474 187.872 23.738C188.895 24.0287 189.783 24.4251 190.531 24.9324L189.863 26.4809C189.078 25.9735 188.243 25.593 187.35 25.3394C186.457 25.0857 185.585 24.9589 184.729 24.9589C183.088 24.9589 181.855 25.2707 181.027 25.889C180.198 26.5126 179.783 27.3106 179.783 28.2936C179.783 29.0282 180.009 29.6201 180.467 30.0641C180.919 30.508 181.489 30.8515 182.178 31.0893C182.862 31.3271 183.787 31.5861 184.944 31.8662C186.317 32.1992 187.425 32.5268 188.27 32.8492C189.115 33.1716 189.836 33.6631 190.423 34.3184C191.01 34.9737 191.306 35.8616 191.306 36.982C191.306 37.9121 191.053 38.7524 190.541 39.5134C190.036 40.2745 189.255 40.877 188.2 41.3262C187.151 41.7754 185.854 41.9974 184.326 41.9974C182.948 41.9974 181.618 41.7754 180.343 41.3367Z" fill="white" fill-opacity="0.5"/>
<path d="M195.622 23.4609H197.603V41.8365H195.622V23.4609Z" fill="white" fill-opacity="0.5"/>
<path d="M216.874 32.6484H218.774V39.6561C217.902 40.4066 216.869 40.9879 215.674 41.3896C214.48 41.7912 213.226 41.9921 211.907 41.9921C210.034 41.9921 208.35 41.5904 206.854 40.7871C205.357 39.9838 204.179 38.8687 203.323 37.4418C202.467 36.0149 202.037 34.4188 202.037 32.6484C202.037 30.8832 202.467 29.2819 203.323 27.855C204.179 26.4281 205.357 25.3129 206.854 24.5096C208.35 23.7063 210.045 23.3047 211.934 23.3047C213.36 23.3047 214.668 23.5266 215.863 23.9759C217.057 24.4198 218.064 25.0804 218.882 25.9577L217.655 27.1944C216.175 25.7569 214.297 25.0434 212.015 25.0434C210.497 25.0434 209.13 25.3711 207.908 26.0264C206.687 26.6817 205.729 27.5907 205.035 28.7587C204.34 29.9214 203.99 31.2214 203.99 32.6589C203.99 34.0964 204.34 35.3912 205.035 36.5433C205.729 37.7007 206.681 38.6097 207.898 39.2756C209.109 39.9415 210.475 40.2745 211.988 40.2745C213.914 40.2745 215.545 39.8041 216.88 38.8581V32.6484H216.874Z" fill="white" fill-opacity="0.5"/>
<path d="M240 23.4609V41.8365H238.369L226.336 26.9226V41.8365H224.355V23.4609H225.986L238.046 38.3749V23.4609H240Z" fill="white" fill-opacity="0.5"/>
</svg>
