<svg width="458" height="149" viewBox="0 0 458 149" fill="none" xmlns="http://www.w3.org/2000/svg">
<rect x="0.5" y="0.5" width="457" height="148" rx="74" stroke="#C2C2C2"/>
<path d="M74.4854 87H69.2559V61.8096H74.4854V87ZM79.3218 61.8096H84.8418L94.8735 79.395V61.8096H99.7783V87H94.5146L84.2266 69.1069V87H79.3218V61.8096ZM123.003 61.8096V66.27H115.467V87H110.169V66.27H102.598V61.8096H123.003ZM144.725 66.27H131.395V71.6191H143.631V75.9941H131.395V82.4712H145.34V87H126.25V61.8096H144.725V66.27ZM154.705 66.1846V72.9521H160.669C161.854 72.9521 162.743 72.8154 163.335 72.542C164.384 72.0635 164.908 71.1178 164.908 69.7051C164.908 68.1784 164.401 67.153 163.387 66.6289C162.817 66.3327 161.963 66.1846 160.823 66.1846H154.705ZM161.917 61.8096C163.683 61.8438 165.039 62.0602 165.984 62.459C166.941 62.8577 167.75 63.4445 168.411 64.2192C168.958 64.8573 169.391 65.5636 169.71 66.3384C170.029 67.1131 170.188 67.9961 170.188 68.9873C170.188 70.1836 169.887 71.3628 169.283 72.5249C168.679 73.6756 167.682 74.4902 166.292 74.9688C167.454 75.4359 168.274 76.1024 168.753 76.9683C169.243 77.8228 169.488 79.133 169.488 80.8989V82.5908C169.488 83.7415 169.533 84.522 169.625 84.9321C169.761 85.5815 170.08 86.0601 170.582 86.3677V87H164.788C164.629 86.4417 164.515 85.9917 164.446 85.6499C164.31 84.9435 164.236 84.2201 164.224 83.4795L164.19 81.1382C164.167 79.5317 163.871 78.4608 163.301 77.9253C162.743 77.3898 161.689 77.1221 160.14 77.1221H154.705V87H149.561V61.8096H161.917ZM179.554 87H174.324V61.8096H179.554V87ZM195.618 83.2402C197.703 83.2402 199.355 82.4712 200.574 80.9331C201.805 79.395 202.42 77.2075 202.42 74.3706C202.42 71.5451 201.805 69.3633 200.574 67.8252C199.355 66.2757 197.703 65.501 195.618 65.501C193.533 65.501 191.87 66.27 190.628 67.8081C189.386 69.3462 188.765 71.5337 188.765 74.3706C188.765 77.2075 189.386 79.395 190.628 80.9331C191.87 82.4712 193.533 83.2402 195.618 83.2402ZM207.684 74.3706C207.684 78.8937 206.413 82.3573 203.873 84.7612C201.97 86.7209 199.218 87.7007 195.618 87.7007C192.018 87.7007 189.266 86.7209 187.364 84.7612C184.812 82.3573 183.536 78.8937 183.536 74.3706C183.536 69.7563 184.812 66.2928 187.364 63.98C189.266 62.0203 192.018 61.0405 195.618 61.0405C199.218 61.0405 201.97 62.0203 203.873 63.98C206.413 66.2928 207.684 69.7563 207.684 74.3706ZM216.98 66.1846V72.9521H222.945C224.13 72.9521 225.018 72.8154 225.611 72.542C226.659 72.0635 227.183 71.1178 227.183 69.7051C227.183 68.1784 226.676 67.153 225.662 66.6289C225.092 66.3327 224.238 66.1846 223.099 66.1846H216.98ZM224.192 61.8096C225.958 61.8438 227.314 62.0602 228.26 62.459C229.217 62.8577 230.026 63.4445 230.687 64.2192C231.233 64.8573 231.666 65.5636 231.985 66.3384C232.304 67.1131 232.464 67.9961 232.464 68.9873C232.464 70.1836 232.162 71.3628 231.558 72.5249C230.954 73.6756 229.957 74.4902 228.567 74.9688C229.729 75.4359 230.55 76.1024 231.028 76.9683C231.518 77.8228 231.763 79.133 231.763 80.8989V82.5908C231.763 83.7415 231.809 84.522 231.9 84.9321C232.037 85.5815 232.356 86.0601 232.857 86.3677V87H227.063C226.904 86.4417 226.79 85.9917 226.722 85.6499C226.585 84.9435 226.511 84.2201 226.5 83.4795L226.465 81.1382C226.443 79.5317 226.146 78.4608 225.577 77.9253C225.018 77.3898 223.965 77.1221 222.415 77.1221H216.98V87H211.836V61.8096H224.192ZM235.591 79.959V75.4985H242.598V68.4917H247.093V75.4985H254.1V79.959H247.093V87H242.598V79.959H235.591ZM262.559 66.1846V82.625H267.413C269.896 82.625 271.628 81.4002 272.608 78.9507C273.143 77.6063 273.411 76.0055 273.411 74.1484C273.411 71.585 273.007 69.6196 272.198 68.2524C271.4 66.8739 269.805 66.1846 267.413 66.1846H262.559ZM268.301 61.8096C269.862 61.8324 271.161 62.0146 272.198 62.3564C273.964 62.9375 275.394 64.0028 276.487 65.5522C277.365 66.8055 277.963 68.1613 278.282 69.6196C278.601 71.078 278.76 72.4679 278.76 73.7896C278.76 77.1392 278.088 79.9761 276.744 82.3003C274.921 85.4334 272.107 87 268.301 87H257.449V61.8096H268.301ZM301.37 66.27H288.04V71.6191H300.276V75.9941H288.04V82.4712H301.985V87H282.896V61.8096H301.37V66.27ZM309.898 79.2241C310.057 80.3748 310.371 81.235 310.838 81.8047C311.692 82.8415 313.156 83.3599 315.23 83.3599C316.472 83.3599 317.48 83.2231 318.255 82.9497C319.725 82.4256 320.459 81.4515 320.459 80.0273C320.459 79.1956 320.095 78.5519 319.366 78.0962C318.637 77.6519 317.492 77.2588 315.931 76.917L313.265 76.3188C310.644 75.7264 308.833 75.0827 307.83 74.3877C306.132 73.2256 305.284 71.4084 305.284 68.936C305.284 66.6802 306.104 64.806 307.745 63.3135C309.385 61.821 311.795 61.0747 314.974 61.0747C317.628 61.0747 319.89 61.7811 321.758 63.1938C323.638 64.5952 324.624 66.6346 324.715 69.312H319.656C319.565 67.7967 318.904 66.7201 317.674 66.082C316.854 65.6605 315.834 65.4497 314.615 65.4497C313.259 65.4497 312.177 65.7231 311.368 66.27C310.559 66.8169 310.154 67.5802 310.154 68.5601C310.154 69.4601 310.553 70.1323 311.351 70.5767C311.863 70.8729 312.957 71.2204 314.632 71.6191L318.973 72.6616C320.875 73.1174 322.311 73.7269 323.279 74.4902C324.783 75.6751 325.535 77.3898 325.535 79.6343C325.535 81.9357 324.652 83.8498 322.886 85.3765C321.132 86.8918 318.648 87.6494 315.435 87.6494C312.154 87.6494 309.573 86.9032 307.693 85.4106C305.813 83.9067 304.874 81.8446 304.874 79.2241H309.898ZM334.251 87H329.021V61.8096H334.251V87ZM356.109 69.6709C355.71 67.9505 354.736 66.7485 353.187 66.0649C352.321 65.689 351.358 65.501 350.298 65.501C348.27 65.501 346.601 66.27 345.291 67.8081C343.992 69.3348 343.343 71.6362 343.343 74.7124C343.343 77.8114 344.049 80.0046 345.462 81.292C346.875 82.5794 348.481 83.2231 350.281 83.2231C352.047 83.2231 353.494 82.7161 354.622 81.7021C355.75 80.6768 356.445 79.3381 356.707 77.686H350.879V73.4819H361.373V87H357.886L357.356 83.8555C356.342 85.0518 355.431 85.8949 354.622 86.3848C353.232 87.2393 351.523 87.6665 349.495 87.6665C346.157 87.6665 343.423 86.5101 341.292 84.1973C339.07 81.873 337.959 78.6943 337.959 74.6611C337.959 70.5824 339.082 67.3125 341.326 64.8516C343.571 62.3906 346.539 61.1602 350.23 61.1602C353.431 61.1602 356.001 61.9748 357.938 63.604C359.886 65.2218 361.002 67.2441 361.287 69.6709H356.109ZM366.329 61.8096H371.849L381.88 79.395V61.8096H386.785V87H381.521L371.233 69.1069V87H366.329V61.8096Z" fill="#3E3E3E"/>
</svg>
