<svg width="248" height="149" viewBox="0 0 248 149" fill="none" xmlns="http://www.w3.org/2000/svg">
<rect x="0.5" y="0.5" width="247" height="148" rx="74" stroke="#C2C2C2"/>
<path fill-rule="evenodd" clip-rule="evenodd" d="M156.874 75.6347C156.874 69.8518 155.425 64.4855 152.83 60.7294C150.537 57.3906 148.122 55.6618 144.381 54.7076C142.027 54.1112 138.708 53.7536 135.81 53.7536H123.619V54.2024C126.878 55.097 127.784 56.3173 127.784 60.1923V86.4868C127.784 91.9828 127.322 95.7517 125.787 97.1037C125.3 96.5404 124.857 95.4078 124.327 94.0503C124.11 93.4941 123.878 92.9002 123.622 92.2921C122.998 90.8092 121.981 88.037 121.694 87.2025L109.442 51.7266L97.2061 86.2471C96.8441 87.2008 96.1292 89.2934 96.0691 89.4725C95.4051 91.3207 94.7766 92.508 94.1126 93.6413C93.0259 95.4297 92.1207 96.293 90.7324 97.0684V97.5167H103.709L103.7 97.0813C101.908 96.939 100.255 95.7075 99.9344 93.764C99.8277 93.1178 99.6958 91.055 99.7046 90.3355L99.706 90.2201C99.7262 88.4993 99.7623 85.429 100.539 81.9877H113.188L115.054 88.2752C115.116 88.5139 115.236 88.871 115.357 89.2288C116.021 91.4947 116.262 92.6277 116.262 93.7604C116.262 95.7273 115.236 96.7099 112.942 97.0684V97.5167H123.317H127.367H139.975C144.26 97.5167 147.278 96.5028 149.933 94.1777C154.278 90.4216 156.874 83.4454 156.874 75.6347ZM113.068 81.5793H100.61C101.455 78.0625 102.98 72.5348 103.885 69.5532L104.489 67.5265L105.092 65.5584L105.756 63.5909C105.756 63.5355 105.936 63.0433 106.146 62.4665L106.146 62.4665C106.388 61.8022 106.671 61.0256 106.768 60.6747L113.068 81.5793ZM146.481 90.4467C148.352 87.3674 149.288 83.8021 149.45 75.9334C149.45 70.9844 149.088 67.8839 148.303 65.3795C145.554 57.0014 142.272 54.1637 134.485 54.2092L134.488 97.0684C142.196 96.8727 143.596 95.1942 146.481 90.4467Z" fill="#3E3E3E"/>
</svg>
