<svg width="381" height="149" viewBox="0 0 381 149" fill="none" xmlns="http://www.w3.org/2000/svg">
<rect x="0.5" y="0.5" width="380" height="148" rx="74" stroke="#C2C2C2"/>
<path fill-rule="evenodd" clip-rule="evenodd" d="M120.703 91.3945H135.744V65.9289L105.637 57.2966V46.5625H95.665V91.3945H110.706V77.2795H120.703V91.3945Z" fill="#3E3E3E"/>
<path fill-rule="evenodd" clip-rule="evenodd" d="M222.586 66.1568V79.9582C222.594 80.7469 222.704 81.5315 222.914 82.2919C223.125 83.0639 223.481 83.7894 223.961 84.4296C224.461 85.0885 225.102 85.6257 225.839 86.0009C227.684 86.8041 229.783 86.8041 231.628 86.0009C232.364 85.6257 233.007 85.0885 233.506 84.4296C233.986 83.7889 234.342 83.0639 234.553 82.2919C234.763 81.5315 234.872 80.7469 234.877 79.9582V66.2174H240.42V80.4929C240.42 84.1555 239.199 88.9793 233.37 91.1806C230.398 92.2702 227.135 92.2778 224.157 91.2018C219.408 89.4205 217.05 85.858 217.05 80.5141V66.1568H222.586H222.586ZM207.15 69.4488C208.351 70.6545 209.313 72.0758 209.986 73.6384C210.682 75.2657 211.035 77.0197 211.022 78.7899C211.041 82.305 209.641 85.6833 207.143 88.1558C205.92 89.3519 204.481 90.3061 202.903 90.9665C199.54 92.3464 195.766 92.3464 192.404 90.9665C190.826 90.3061 189.387 89.3519 188.165 88.1558C185.668 85.6823 184.271 82.304 184.292 78.7899C184.28 77.0197 184.633 75.2662 185.328 73.6384C187.442 68.7197 192.305 65.5166 197.659 65.5166C201.217 65.5166 204.634 66.9319 207.15 69.4488ZM267.176 66.1998V70.9594L253.912 86.428H267.892V91.3977H246.83V86.5881L259.997 71.169H247.29V66.1992H267.176V66.1998ZM293.55 66.1998V70.9594L280.286 86.428H294.266V91.3977H273.204V86.5881L286.371 71.169H273.663V66.1992H293.55V66.1998ZM161.314 57.2969V67.9028C164.267 65.5232 168.83 64.889 172.55 66.428C176.416 68.0275 178.632 71.5724 178.635 76.1538V91.3912H173.059V77.9886C173.059 74.8391 171.46 71.1594 166.957 71.1594C162.051 71.1594 161.317 75.4379 161.317 77.9886V91.3947H155.734V57.2969H161.314ZM204.599 82.0177C205.311 79.9224 205.311 77.6498 204.599 75.555C204.28 74.6321 203.776 73.7838 203.121 73.0613C202.463 72.3646 201.667 71.8122 200.783 71.4401C198.776 70.6418 196.538 70.6418 194.531 71.4401C193.648 71.8117 192.852 72.3641 192.194 73.0613C191.535 73.7833 191.031 74.6316 190.712 75.555C190 77.6498 190 79.9229 190.712 82.0177C191.031 82.9412 191.536 83.7899 192.194 84.5114C192.852 85.2087 193.648 85.761 194.531 86.1326C196.539 86.9284 198.776 86.9284 200.783 86.1326C201.667 85.7605 202.463 85.2087 203.121 84.5114C203.777 83.7889 204.28 82.9402 204.599 82.0177Z" fill="#3E3E3E"/>
</svg>
